# xmcd
#
# Track frame offsets: 
#        150
#        13392
#        25083
#        38746
#        49175
#        63566
#        77253
#        91166
#        103380
#        116706
#        129285
#        142464
#        155937
#        166940
#        181599
#        185276
#        199436
#        211000
#        224042
#        237245
#        249875
#        263004
#        276350
#        289755
#        301112
#        309284
#        321969
#        336072
#
# Disc length: 4656 seconds
#
# Revision: 0
# Processed by: cddbd v1.5.2PL0 Copyright (c) Steve Scherf et al.
# Submitted via: ExactAudioCopyFreeDBPlugin 1.0
#
DISCID=98122e1c
DTITLE=Various Artist - She's Selling What She Used To Give Away
DYEAR=2018
DGENRE=Country
TTITLE0=Bang Boys - When Lulu's Gone
TTITLE1=Hartman's Heart Breakers - Feels Good
TTITLE2=Jimmie Davis - Red Nightgown Blues
TTITLE3=Southern Melody Boys - Wind The Little Ball Of Yarn
TTITLE4=Cofer Brothers - How Long?
TTITLE5=Cliff Carlisle - Ash Can Blues
TTITLE6=Tom (Clarence) Ashley - My Sweet Farm Girl
TTITLE7=Hartman's Heart Breakers - No Huggin' Or Kissin'
TTITLE8=Nichols Brothers - She's Killing Me
TTITLE9=The Pine Mountain Boys - She Wouldn't Be Still
TTITLE10=Milton Brown and His Brownies - Somebody's Been Using That Thin
TTITLE10=g
TTITLE11=Jimmie Davis - Tom Cat and Pussy Blues
TTITLE12=Light Crust Doughboys - Pussy, Pussy, Pussy
TTITLE13=Cliff Carlisle - Mouse's Ear Blues
TTITLE14=Gene Autry - Bye Bye Boyfriend
TTITLE15=Buster Carter and Preston Young - It Won't Hurt No More
TTITLE16=Girls Of The Golden West - Bucking Bronco (My Love Is A Rider
TTITLE16=)
TTITLE17=Bang Boys - Doin' It The Old Fashioned Way
TTITLE18=Callahan Brothers - She Came Rollin' Down The Mountain
TTITLE19=Riley Puckett - Nobody's Business
TTITLE20=Jimmie Davis - Jellyroll Blues
TTITLE21=Hartman's Heart Breakers - Let Me Play With It
TTITLE22=Bill Cox and Cliff Hobbs - Oozlin' Daddy Blues
TTITLE23=Modern Mountaineers - Everybody's Truckin'
TTITLE24=Gene Autry - Frankie And Johnnie
TTITLE25=Jimmie Davis - She's A Hum Dum Dinger (From Dingersville)
TTITLE26=Buddy Jones - She's Selling What She Used To Give Away
TTITLE27=The Tune Wranglers - Red's Tight Like That
EXTD=
EXTT0=
EXTT1=
EXTT2=
EXTT3=
EXTT4=
EXTT5=
EXTT6=
EXTT7=
EXTT8=
EXTT9=
EXTT10=
EXTT11=
EXTT12=
EXTT13=
EXTT14=
EXTT15=
EXTT16=
EXTT17=
EXTT18=
EXTT19=
EXTT20=
EXTT21=
EXTT22=
EXTT23=
EXTT24=
EXTT25=
EXTT26=
EXTT27=
PLAYORDER=
